<svg xmlns="http://www.w3.org/2000/svg" xmlns:xlink="http://www.w3.org/1999/xlink" width="500" zoomAndPan="magnify" viewBox="0 0 375 299.999988" height="400" preserveAspectRatio="xMidYMid meet" version="1.0"><defs><filter x="0%" y="0%" width="100%" height="100%" id="9929018267"><feColorMatrix values="0 0 0 0 1 0 0 0 0 1 0 0 0 0 1 0 0 0 1 0" color-interpolation-filters="sRGB"/></filter><clipPath id="7a87276643"><path d="M 9 79 L 362 79 L 362 278 L 9 278 Z M 9 79 " clip-rule="nonzero"/></clipPath><clipPath id="8a6f4e4e2c"><path d="M 131.015625 1.636719 L 370.976562 177.910156 L 239.992188 356.222656 L 0.03125 179.945312 Z M 131.015625 1.636719 " clip-rule="nonzero"/></clipPath><clipPath id="1d1837a9a4"><path d="M 131.015625 1.636719 L 370.976562 177.910156 L 239.992188 356.222656 L 0.03125 179.945312 Z M 131.015625 1.636719 " clip-rule="nonzero"/></clipPath><clipPath id="6c0ef62ab5"><path d="M 18.769531 193.601562 L 117.753906 266.3125 C 119.75 267.789062 121.828125 269.136719 123.992188 270.351562 C 126.15625 271.566406 128.386719 272.636719 130.6875 273.570312 C 132.988281 274.5 135.335938 275.28125 137.738281 275.914062 C 140.136719 276.542969 142.566406 277.023438 145.027344 277.34375 C 147.488281 277.667969 149.957031 277.832031 152.4375 277.84375 C 154.917969 277.851562 157.390625 277.703125 159.851562 277.398438 C 162.316406 277.09375 164.746094 276.632812 167.152344 276.019531 C 169.554688 275.402344 171.910156 274.636719 174.214844 273.722656 L 348.035156 203.507812 C 364.394531 196.894531 366.75 174.917969 352.242188 164.261719 L 252.59375 91.0625 C 250.652344 89.621094 248.625 88.308594 246.515625 87.125 C 244.402344 85.941406 242.226562 84.894531 239.984375 83.988281 C 237.738281 83.082031 235.449219 82.320312 233.105469 81.703125 C 230.765625 81.089844 228.398438 80.625 226 80.308594 C 223.597656 79.992188 221.191406 79.832031 218.769531 79.824219 C 216.351562 79.816406 213.941406 79.960938 211.539062 80.257812 C 209.136719 80.554688 206.765625 81.003906 204.421875 81.605469 C 202.078125 82.203125 199.78125 82.949219 197.53125 83.839844 L 22.945312 154.398438 C 6.621094 160.964844 4.273438 182.949219 18.769531 193.601562 Z M 18.769531 193.601562 " clip-rule="nonzero"/></clipPath><linearGradient x1="-32.033728" gradientTransform="matrix(0.698055, 0.512783, -0.512533, 0.697715, 130.959322, 1.71112)" y1="-115.725756" x2="375.652799" gradientUnits="userSpaceOnUse" y2="370.908061" id="0602dd29e2"><stop stop-opacity="1" stop-color="rgb(13.299561%, 13.299561%, 13.299561%)" offset="0"/><stop stop-opacity="1" stop-color="rgb(13.299561%, 13.299561%, 13.299561%)" offset="0.25"/><stop stop-opacity="1" stop-color="rgb(13.299561%, 13.299561%, 13.299561%)" offset="0.3125"/><stop stop-opacity="1" stop-color="rgb(13.299561%, 13.299561%, 13.299561%)" offset="0.328125"/><stop stop-opacity="1" stop-color="rgb(13.175964%, 13.175964%, 13.175964%)" offset="0.335938"/><stop stop-opacity="1" stop-color="rgb(12.90741%, 12.90741%, 12.90741%)" offset="0.34375"/><stop stop-opacity="1" stop-color="rgb(12.619019%, 12.619019%, 12.619019%)" offset="0.351563"/><stop stop-opacity="1" stop-color="rgb(12.330627%, 12.330627%, 12.330627%)" offset="0.359375"/><stop stop-opacity="1" stop-color="rgb(12.042236%, 12.042236%, 12.042236%)" offset="0.367188"/><stop stop-opacity="1" stop-color="rgb(11.755371%, 11.755371%, 11.755371%)" offset="0.375"/><stop stop-opacity="1" stop-color="rgb(11.46698%, 11.46698%, 11.46698%)" offset="0.382812"/><stop stop-opacity="1" stop-color="rgb(11.178589%, 11.178589%, 11.178589%)" offset="0.390625"/><stop stop-opacity="1" stop-color="rgb(10.890198%, 10.890198%, 10.890198%)" offset="0.398438"/><stop stop-opacity="1" stop-color="rgb(10.601807%, 10.601807%, 10.601807%)" offset="0.40625"/><stop stop-opacity="1" stop-color="rgb(10.313416%, 10.313416%, 10.313416%)" offset="0.414063"/><stop stop-opacity="1" stop-color="rgb(10.02655%, 10.02655%, 10.02655%)" offset="0.421875"/><stop stop-opacity="1" stop-color="rgb(9.738159%, 9.738159%, 9.738159%)" offset="0.429688"/><stop stop-opacity="1" stop-color="rgb(9.449768%, 9.449768%, 9.449768%)" offset="0.4375"/><stop stop-opacity="1" stop-color="rgb(9.161377%, 9.161377%, 9.161377%)" offset="0.445313"/><stop stop-opacity="1" stop-color="rgb(8.872986%, 8.872986%, 8.872986%)" offset="0.453125"/><stop stop-opacity="1" stop-color="rgb(8.584595%, 8.584595%, 8.584595%)" offset="0.460938"/><stop stop-opacity="1" stop-color="rgb(8.297729%, 8.297729%, 8.297729%)" offset="0.46875"/><stop stop-opacity="1" stop-color="rgb(8.009338%, 8.009338%, 8.009338%)" offset="0.476563"/><stop stop-opacity="1" stop-color="rgb(7.720947%, 7.720947%, 7.720947%)" offset="0.478099"/><stop stop-opacity="1" stop-color="rgb(7.577515%, 7.577515%, 7.577515%)" offset="0.484375"/><stop stop-opacity="1" stop-color="rgb(7.432556%, 7.432556%, 7.432556%)" offset="0.492188"/><stop stop-opacity="1" stop-color="rgb(7.144165%, 7.144165%, 7.144165%)" offset="0.5"/><stop stop-opacity="1" stop-color="rgb(6.855774%, 6.855774%, 6.855774%)" offset="0.507812"/><stop stop-opacity="1" stop-color="rgb(6.568909%, 6.568909%, 6.568909%)" offset="0.515625"/><stop stop-opacity="1" stop-color="rgb(6.280518%, 6.280518%, 6.280518%)" offset="0.521901"/><stop stop-opacity="1" stop-color="rgb(6.137085%, 6.137085%, 6.137085%)" offset="0.523438"/><stop stop-opacity="1" stop-color="rgb(5.992126%, 5.992126%, 5.992126%)" offset="0.53125"/><stop stop-opacity="1" stop-color="rgb(5.703735%, 5.703735%, 5.703735%)" offset="0.539062"/><stop stop-opacity="1" stop-color="rgb(5.415344%, 5.415344%, 5.415344%)" offset="0.546875"/><stop stop-opacity="1" stop-color="rgb(5.126953%, 5.126953%, 5.126953%)" offset="0.554688"/><stop stop-opacity="1" stop-color="rgb(4.840088%, 4.840088%, 4.840088%)" offset="0.5625"/><stop stop-opacity="1" stop-color="rgb(4.551697%, 4.551697%, 4.551697%)" offset="0.570313"/><stop stop-opacity="1" stop-color="rgb(4.263306%, 4.263306%, 4.263306%)" offset="0.578125"/><stop stop-opacity="1" stop-color="rgb(3.974915%, 3.974915%, 3.974915%)" offset="0.585938"/><stop stop-opacity="1" stop-color="rgb(3.686523%, 3.686523%, 3.686523%)" offset="0.59375"/><stop stop-opacity="1" stop-color="rgb(3.399658%, 3.399658%, 3.399658%)" offset="0.601562"/><stop stop-opacity="1" stop-color="rgb(3.111267%, 3.111267%, 3.111267%)" offset="0.609375"/><stop stop-opacity="1" stop-color="rgb(2.822876%, 2.822876%, 2.822876%)" offset="0.617188"/><stop stop-opacity="1" stop-color="rgb(2.534485%, 2.534485%, 2.534485%)" offset="0.625"/><stop stop-opacity="1" stop-color="rgb(2.246094%, 2.246094%, 2.246094%)" offset="0.632812"/><stop stop-opacity="1" stop-color="rgb(1.957703%, 1.957703%, 1.957703%)" offset="0.640625"/><stop stop-opacity="1" stop-color="rgb(1.670837%, 1.670837%, 1.670837%)" offset="0.648438"/><stop stop-opacity="1" stop-color="rgb(1.382446%, 1.382446%, 1.382446%)" offset="0.65625"/><stop stop-opacity="1" stop-color="rgb(1.094055%, 1.094055%, 1.094055%)" offset="0.664063"/><stop stop-opacity="1" stop-color="rgb(0.805664%, 0.805664%, 0.805664%)" offset="0.671875"/><stop stop-opacity="1" stop-color="rgb(0.517273%, 0.517273%, 0.517273%)" offset="0.679688"/><stop stop-opacity="1" stop-color="rgb(0.228882%, 0.228882%, 0.228882%)" offset="0.6875"/><stop stop-opacity="1" stop-color="rgb(0.0427246%, 0.0427246%, 0.0427246%)" offset="0.75"/><stop stop-opacity="1" stop-color="rgb(0%, 0%, 0%)" offset="1"/></linearGradient><mask id="9dc88fcba2"><g filter="url(#9929018267)"><rect x="-37.5" width="450" fill="#000000" y="-29.999999" height="359.999986" fill-opacity="0.949"/></g></mask><clipPath id="4fd1d09b3a"><path d="M 10 21 L 363 21 L 363 220 L 10 220 Z M 10 21 " clip-rule="nonzero"/></clipPath><clipPath id="a70200832f"><path d="M 132.089844 -56.21875 L 372.054688 120.054688 L 241.070312 298.367188 L 1.105469 122.089844 Z M 132.089844 -56.21875 " clip-rule="nonzero"/></clipPath><clipPath id="dbbd4e676f"><path d="M 132.089844 -56.21875 L 372.054688 120.054688 L 241.070312 298.367188 L 1.105469 122.089844 Z M 132.089844 -56.21875 " clip-rule="nonzero"/></clipPath><clipPath id="e085307f45"><path d="M 19.847656 135.742188 L 118.832031 208.457031 C 120.824219 209.933594 122.902344 211.28125 125.066406 212.496094 C 127.230469 213.710938 129.464844 214.78125 131.765625 215.714844 C 134.066406 216.644531 136.414062 217.425781 138.816406 218.058594 C 141.214844 218.6875 143.644531 219.167969 146.105469 219.488281 C 148.5625 219.8125 151.035156 219.976562 153.515625 219.988281 C 155.996094 219.996094 158.46875 219.847656 160.929688 219.542969 C 163.394531 219.238281 165.824219 218.777344 168.230469 218.160156 C 170.632812 217.546875 172.988281 216.78125 175.292969 215.867188 L 349.113281 145.652344 C 365.46875 139.039062 367.824219 117.0625 353.320312 106.40625 L 253.671875 33.207031 C 251.730469 31.765625 249.703125 30.453125 247.589844 29.269531 C 245.480469 28.085938 243.304688 27.039062 241.058594 26.132812 C 238.816406 25.226562 236.523438 24.464844 234.183594 23.847656 C 231.84375 23.234375 229.476562 22.769531 227.074219 22.453125 C 224.675781 22.136719 222.265625 21.976562 219.847656 21.96875 C 217.429688 21.960938 215.019531 22.105469 212.617188 22.402344 C 210.214844 22.699219 207.84375 23.148438 205.5 23.75 C 203.15625 24.347656 200.859375 25.09375 198.609375 25.984375 L 24.023438 96.542969 C 7.699219 103.109375 5.351562 125.09375 19.847656 135.742188 Z M 19.847656 135.742188 " clip-rule="nonzero"/></clipPath><clipPath id="14ca62b4fc"><rect x="0" width="372" y="0" height="300"/></clipPath></defs><g clip-path="url(#7a87276643)"><g clip-path="url(#8a6f4e4e2c)"><g clip-path="url(#1d1837a9a4)"><g clip-path="url(#6c0ef62ab5)"><path fill="url(#0602dd29e2)" d="M 131.316406 -93.128906 L -90.214844 208.441406 L 239.703125 450.796875 L 461.234375 149.226562 Z M 131.316406 -93.128906 " fill-rule="nonzero"/></g></g></g></g><g mask="url(#9dc88fcba2)"><g transform="matrix(1, 0, 0, 1, 3, 0)"><g clip-path="url(#14ca62b4fc)"><g clip-path="url(#4fd1d09b3a)"><g clip-path="url(#a70200832f)"><g clip-path="url(#dbbd4e676f)"><g clip-path="url(#e085307f45)"><path fill="#e03c31" d="M 132.394531 -150.984375 L -89.136719 150.585938 L 240.78125 392.941406 L 462.3125 91.367188 Z M 132.394531 -150.984375 " fill-opacity="1" fill-rule="nonzero"/></g></g></g></g></g></g></g></svg>